<svg width="384" height="512" xmlns="http://www.w3.org/2000/svg">

 <g>
  <title>background</title>
  <rect fill="none" id="canvas_background" height="402" width="582" y="-1" x="-1"/>
 </g>
 <g>
  <title>Layer 1</title>
  <ellipse stroke="null" ry="190" rx="190" id="svg_2" cy="237.254892" cx="191.666677" stroke-opacity="null" stroke-width="null" fill="#ffffff"/>
  <path stroke="null" fill="#8cc9f0" id="svg_1" d="m175.617083,194.165073c0,-10.0473 9.087247,-13.922044 23.646384,-13.922044c21.203575,0 48.123322,5.992336 69.326898,16.535243l0,-60.509078c-23.108966,-8.515425 -46.169076,-11.759396 -69.278041,-11.759396c-56.526582,0 -94.194685,27.213316 -94.194685,72.719025c0,71.142095 105.920165,59.607974 105.920165,90.290537c0,11.894562 -11.188062,15.72425 -26.724322,15.72425c-23.06011,0 -52.86237,-8.785756 -76.264473,-20.500097l0,57.895878a193.514382,178.458977 0 0 0 76.215617,14.597871c57.943411,0 97.858898,-22.978131 97.858898,-69.204723c0,-76.683879 -106.506439,-62.942056 -106.506439,-91.867468z"/>
 </g>
</svg>